<?xml version="1.0" standalone="no"?>
<!DOCTYPE svg PUBLIC "-//W3C//DTD SVG 20010904//EN"
 "http://www.w3.org/TR/2001/REC-SVG-20010904/DTD/svg10.dtd">
<svg version="1.0" xmlns="http://www.w3.org/2000/svg"
 width="230.000000pt" height="225.000000pt" viewBox="0 0 230.000000 225.000000"
 preserveAspectRatio="xMidYMid meet">

<g transform="translate(0.000000,225.000000) scale(0.100000,-0.100000)"
fill="#000000" stroke="none">
<path d="M985 2209 c-160 -23 -359 -103 -491 -197 -310 -220 -486 -557 -487
-932 0 -135 14 -231 54 -355 95 -298 319 -552 604 -686 71 -34 94 -40 138 -37
l52 3 3 120 3 120 -98 -3 c-172 -6 -226 22 -298 158 -37 69 -63 104 -107 142
-64 56 -71 74 -32 84 72 18 152 -25 214 -116 55 -81 105 -113 184 -118 36 -2
77 2 100 11 33 11 41 20 51 55 7 23 22 57 34 77 l20 35 -27 0 c-98 1 -254 66
-334 139 -100 91 -148 224 -148 407 0 121 22 203 75 281 34 51 35 54 24 99
-14 53 -7 161 14 219 14 39 15 40 60 38 57 -3 136 -32 213 -79 58 -35 60 -36
109 -24 87 22 337 25 438 6 l88 -17 57 35 c108 65 237 102 259 74 33 -41 49
-217 26 -277 -8 -21 -4 -32 23 -68 75 -98 102 -257 70 -423 -30 -160 -110
-277 -234 -339 -66 -33 -190 -71 -234 -71 -16 0 -28 -2 -28 -4 0 -2 12 -25 28
-52 27 -49 27 -51 30 -259 1 -116 5 -220 7 -233 5 -19 12 -22 56 -22 38 0 72
10 133 39 282 132 501 376 601 670 77 227 77 504 1 728 -140 411 -503 713
-930 772 -89 13 -234 12 -321 0z"/>
</g>
</svg>
