<?xml version="1.0" standalone="no"?>
<!DOCTYPE svg PUBLIC "-//W3C//DTD SVG 20010904//EN"
 "http://www.w3.org/TR/2001/REC-SVG-20010904/DTD/svg10.dtd">
<svg version="1.0" xmlns="http://www.w3.org/2000/svg"
 width="3000.000000pt" height="2000.000000pt" viewBox="0 0 3000.000000 2000.000000"
 preserveAspectRatio="xMidYMid meet">

<g transform="translate(0.000000,2000.000000) scale(0.100000,-0.100000)"
fill="#000000" stroke="none">
<path d="M17208 16995 c-2 -1 -133 -5 -293 -9 -159 -4 -335 -9 -390 -11 -261
-11 -442 -15 -835 -20 -1061 -13 -1496 -23 -1640 -40 -25 -3 -119 -10 -210
-15 -323 -20 -462 -31 -810 -65 -30 -3 -104 -10 -165 -15 -60 -6 -130 -12
-155 -14 -25 -3 -72 -7 -105 -10 -190 -17 -189 -17 -345 -36 -41 -5 -111 -12
-155 -15 -44 -3 -138 -12 -210 -20 -71 -8 -195 -21 -275 -30 -80 -9 -161 -17
-180 -20 -66 -7 -135 -15 -185 -20 -46 -4 -183 -19 -280 -30 -22 -2 -105 -12
-185 -21 -209 -23 -711 -84 -740 -89 -14 -3 -70 -12 -125 -20 -206 -32 -402
-71 -580 -117 -280 -71 -651 -224 -881 -364 -40 -24 -75 -44 -77 -44 -8 0
-229 -148 -312 -209 -110 -80 -161 -126 -299 -266 -137 -139 -233 -264 -406
-530 -68 -104 -153 -230 -190 -280 -159 -216 -317 -487 -446 -769 -41 -88
-103 -212 -138 -275 -138 -249 -176 -337 -226 -525 -42 -156 -56 -234 -85
-469 -60 -490 -68 -622 -62 -1027 8 -499 23 -619 132 -1045 30 -116 68 -271
85 -345 32 -140 107 -414 165 -605 19 -61 73 -197 120 -302 94 -212 149 -354
232 -603 66 -197 132 -341 205 -447 80 -117 227 -263 368 -368 82 -61 169
-139 250 -223 l125 -130 165 -81 c267 -130 532 -295 680 -423 93 -81 395 -415
485 -536 31 -42 93 -144 139 -227 83 -152 310 -503 420 -650 145 -193 197
-248 381 -401 39 -32 88 -75 109 -94 44 -40 37 -33 131 -120 229 -212 332
-288 525 -388 228 -118 433 -192 665 -240 214 -44 311 -51 1162 -78 l182 -5 7
36 c8 43 28 41 32 -2 l3 -31 179 -2 179 -1 6 35 c8 42 35 39 35 -5 l0 -29 350
0 c304 0 350 2 350 15 0 8 9 15 20 15 11 0 20 -7 20 -15 0 -13 30 -15 208 -15
114 0 289 -2 390 -4 140 -3 182 -1 182 8 0 26 46 56 86 56 44 0 70 -12 60 -28
-4 -8 -15 -8 -36 -1 -20 7 -35 7 -49 -1 -28 -14 -27 -40 2 -41 12 0 51 -2 87
-4 36 -2 146 -6 245 -9 99 -3 268 -9 376 -12 l196 -7 6 24 c4 13 7 36 7 52 0
17 5 27 15 27 11 0 15 -12 15 -49 0 -38 4 -50 18 -53 16 -4 136 -4 585 0 l167
2 0 50 c0 38 4 50 15 50 11 0 15 -12 15 -50 l0 -50 103 5 c56 3 127 7 157 10
30 2 132 7 225 11 94 4 177 8 185 10 8 1 30 3 48 3 21 1 32 6 32 16 0 8 9 15
20 15 12 0 20 -7 20 -16 0 -13 7 -15 38 -10 20 3 132 11 247 16 763 38 860 47
1045 91 47 11 115 32 151 45 121 45 337 165 390 216 8 8 28 24 44 36 59 45
208 198 250 257 54 76 92 153 151 302 26 65 81 192 124 283 43 91 121 257 174
370 106 225 178 350 285 492 134 179 214 260 431 438 63 52 160 133 215 180
55 47 188 152 295 235 257 196 409 323 453 377 19 23 60 90 92 147 71 132 116
196 201 295 191 218 214 254 281 436 181 494 409 1199 488 1510 35 139 99 451
116 565 32 216 40 290 50 490 10 192 7 557 -6 665 -2 19 -6 68 -10 108 -6 84
-40 336 -56 427 -117 653 -244 1043 -530 1630 -54 111 -75 150 -154 290 -149
264 -328 519 -590 840 -194 236 -337 410 -344 415 -3 3 -51 57 -106 120 -389
450 -661 660 -1110 860 -60 27 -141 61 -180 75 -38 15 -117 45 -175 67 -170
65 -573 195 -735 238 -128 34 -271 65 -390 84 -83 14 -435 53 -550 61 -44 3
-114 8 -155 11 -73 6 -727 14 -732 9z m1282 -2010 c0 -142 -880 -1245 -2154
-2700 -847 -966 -2169 -2419 -2662 -2925 -56 -58 -114 -120 -129 -138 -15 -17
-31 -29 -36 -26 -5 3 -8 2 -7 -3 4 -12 -89 -103 -96 -95 -3 3 -6 1 -6 -5 0 -6
-9 -9 -20 -6 -12 3 -20 0 -20 -6 0 -7 4 -10 9 -6 5 3 12 1 15 -4 4 -5 2 -12
-3 -15 -5 -4 -12 -2 -16 4 -7 12 -85 14 -85 2 0 -5 -19 -14 -42 -21 -24 -7
-61 -21 -83 -31 -22 -10 -57 -22 -77 -25 -21 -4 -38 -11 -38 -16 0 -4 -16 -11
-35 -15 -19 -3 -38 -10 -41 -15 -3 -5 -23 -9 -45 -9 -21 0 -39 -4 -39 -9 0 -5
-18 -12 -40 -16 -22 -4 -40 -11 -40 -15 0 -5 -16 -12 -35 -16 -19 -3 -38 -10
-41 -15 -3 -5 -9 -7 -14 -4 -5 3 -11 1 -15 -5 -3 -6 4 -14 17 -19 13 -6 21
-10 18 -11 -24 -7 -39 -7 -35 0 3 5 -2 13 -10 17 -13 8 -12 12 9 30 13 12 28
18 32 15 4 -4 4 -1 0 6 -10 16 22 54 37 45 5 -3 7 -1 4 4 -7 10 60 94 280 350
l114 133 -65 74 c-237 272 -416 611 -506 962 -145 562 -87 1137 169 1659 355
721 1021 1204 1826 1321 165 24 497 25 655 1 361 -55 713 -189 1001 -382 62
-41 116 -75 119 -75 4 0 137 136 296 302 876 917 1593 1607 1769 1701 38 21
65 21 65 2z m-3185 -787 c30 -14 42 -50 27 -83 -15 -32 -55 -42 -87 -21 -33
22 -35 78 -3 100 27 19 30 19 63 4z m-2715 -61 c36 -18 70 -74 70 -116 0 -77
-73 -140 -148 -127 -19 3 -37 8 -40 10 -3 3 -6 56 -6 117 -1 89 2 112 14 119
22 13 81 12 110 -3z m5875 -151 c32 -49 -11 -107 -68 -92 -15 3 -30 18 -37 36
-10 25 -10 34 4 55 23 35 79 35 101 1z m2593 -78 c7 -7 12 -28 12 -48 0 -45
-15 -60 -57 -60 l-33 0 0 60 0 60 33 0 c18 0 38 -5 45 -12z m-10401 -379 c65
-62 19 -169 -72 -169 -37 0 -62 16 -80 50 -21 40 -19 72 6 104 40 51 101 56
146 15z m-786 -720 c45 -16 69 -37 87 -79 13 -30 15 -133 13 -768 -1 -403 1
-757 5 -788 8 -64 35 -110 84 -138 32 -20 54 -21 297 -24 l262 -3 3 848 c3
827 3 849 23 882 11 19 33 43 48 55 28 21 38 21 508 24 461 3 481 2 525 -17
36 -16 49 -29 64 -65 20 -44 20 -72 18 -1813 -3 -1952 2 -1804 -67 -1850 l-34
-23 -484 0 c-544 0 -537 -1 -573 70 -17 33 -19 73 -26 418 l-7 382 -508 0
c-556 0 -666 8 -821 56 -127 40 -214 90 -294 169 -119 118 -184 278 -204 510
-14 157 -13 1998 1 2050 13 49 53 92 94 104 47 14 945 13 986 0z m9432 -3 c40
-17 71 -51 86 -95 8 -24 11 -254 11 -800 0 -734 1 -768 20 -808 36 -80 47 -83
352 -83 l267 0 3 838 c3 814 4 838 23 877 14 28 33 47 65 63 44 22 47 22 510
22 463 0 466 0 510 -22 88 -45 80 136 80 -1860 0 -1971 5 -1824 -69 -1870
l-36 -23 -485 0 c-445 0 -488 1 -517 18 -67 36 -67 40 -73 467 l-5 385 -570 6
c-542 5 -575 7 -670 28 -315 71 -494 234 -565 516 -37 145 -41 291 -38 1285 3
865 5 958 19 985 22 39 50 64 85 75 16 4 240 9 497 9 375 1 474 -2 500 -13z
m-2434 -360 c143 -194 282 -483 350 -732 105 -380 118 -751 42 -1128 -20 -102
-29 -130 -41 -128 -11 3 -12 0 -4 -8 13 -13 7 -56 -10 -68 -23 -17 -100 -36
-149 -36 -29 0 -44 -2 -34 -4 31 -6 18 -18 -45 -39 -87 -29 -154 -44 -181 -40
-12 2 -16 2 -9 0 27 -10 9 -23 -60 -44 -40 -12 -114 -37 -164 -56 -50 -18
-107 -36 -127 -40 -20 -3 -37 -10 -37 -15 0 -6 -17 -8 -39 -6 -25 2 -37 -1
-34 -7 3 -10 -89 -44 -162 -60 -16 -4 -37 -12 -45 -19 -8 -8 -42 -21 -75 -31
-149 -44 -200 -62 -247 -86 -10 -5 -25 -9 -33 -9 -26 0 -154 -44 -207 -71 -10
-5 -25 -9 -35 -9 -23 0 -83 -22 -83 -31 0 -4 -26 -13 -57 -20 -32 -6 -66 -17
-77 -24 -10 -8 -24 -11 -31 -9 -7 3 -37 -6 -67 -19 -31 -14 -71 -28 -89 -32
-19 -4 -39 -11 -45 -17 -7 -5 -20 -11 -30 -13 -75 -17 -97 -25 -119 -39 -13
-9 -38 -16 -54 -16 -16 0 -31 -5 -33 -11 -2 -6 -15 -13 -28 -15 -46 -6 -95
-21 -127 -37 -18 -10 -43 -17 -57 -17 -13 0 -26 -5 -28 -11 -2 -6 -15 -13 -28
-15 -46 -6 -95 -21 -127 -37 -18 -10 -43 -17 -58 -17 -14 0 -25 -4 -25 -9 0
-12 -26 -22 -80 -31 -25 -4 -83 -24 -130 -44 -89 -38 -140 -45 -160 -22 -14
17 -22 8 305 356 418 444 922 991 1179 1280 27 30 137 154 245 275 302 338
675 767 896 1027 110 130 203 237 207 237 4 1 25 -23 47 -53z m-9296 -1068
c28 -22 32 -63 8 -87 -43 -43 -120 -9 -106 47 7 32 31 52 60 52 12 0 29 -6 38
-12z m14499 -705 c39 -35 13 -103 -39 -103 -57 0 -82 61 -43 100 24 24 57 26
82 3z m-4925 -388 c0 -8 -4 -12 -9 -9 -5 3 -6 10 -3 15 9 13 12 11 12 -6z
m-3157 -970 c14 -17 5 -35 -17 -35 -10 0 -13 6 -9 16 3 8 2 12 -4 9 -11 -7
-14 8 -3 18 10 11 19 8 33 -8z m-57 -44 c-12 -9 -19 -24 -18 -34 2 -11 1 -16
-2 -13 -3 3 -11 -1 -18 -10 -10 -14 -13 -14 -26 3 -13 16 -13 17 4 4 11 -9 17
-10 17 -2 0 21 2 26 22 54 11 15 24 24 30 21 7 -4 3 -13 -9 -23z m-73 -65 c0
-2 -7 -7 -16 -10 -8 -3 -12 -2 -9 4 6 10 25 14 25 6z m-562 -190 c-7 -8 -15
-12 -17 -11 -5 6 10 25 20 25 5 0 4 -6 -3 -14z m-185 -63 c-7 -2 -19 -2 -25 0
-7 3 -2 5 12 5 14 0 19 -2 13 -5z m-236 -79 c-3 -3 -12 -4 -19 -1 -8 3 -5 6 6
6 11 1 17 -2 13 -5z m-203 -62 c3 -5 -1 -9 -9 -9 -8 0 -12 4 -9 9 3 4 7 8 9 8
2 0 6 -4 9 -8z m4703 -481 c50 -23 73 -62 73 -125 0 -111 -139 -165 -219 -85
-32 31 -47 83 -37 123 9 37 54 85 89 95 45 13 47 13 94 -8z m-7012 -95 c21
-15 25 -67 5 -90 -7 -9 -28 -16 -46 -16 l-34 0 0 60 c0 59 0 60 28 60 16 0 37
-6 47 -14z m3729 -92 c19 -18 21 -75 4 -92 -7 -7 -27 -12 -45 -12 l-33 0 0 60
c0 60 0 60 29 60 16 0 37 -7 45 -16z m5670 -6 c33 -47 7 -98 -49 -98 l-32 0
-2 60 -2 60 35 0 c25 0 39 -7 50 -22z m-8288 -2235 c89 -47 143 -153 129 -252
-10 -72 -56 -145 -112 -178 -47 -27 -52 -28 -220 -31 l-173 -4 0 -129 0 -129
-30 0 -30 0 0 376 0 376 198 -4 c179 -3 201 -5 238 -25z m4734 11 c44 -18 46
-21 26 -46 -12 -17 -15 -17 -45 -2 -41 20 -90 12 -120 -20 -17 -18 -24 -41
-28 -85 l-6 -61 87 0 c85 0 86 0 86 -25 0 -25 -1 -25 -85 -25 l-85 0 0 -235 0
-235 -25 0 -25 0 0 234 0 235 -52 3 c-46 3 -53 6 -56 25 -3 20 2 22 50 25 l53
3 6 68 c6 77 27 112 80 139 42 22 87 23 139 2z m2495 -359 l0 -370 -25 0 c-23
0 -25 5 -30 48 l-5 49 -30 -33 c-86 -92 -267 -95 -364 -6 -92 85 -96 300 -8
395 94 101 297 101 382 0 l25 -30 0 155 c0 84 3 157 7 161 4 4 16 6 28 4 20
-3 20 -8 20 -373z m225 75 l0 -300 -25 0 -25 0 0 300 0 300 25 0 25 0 0 -300z
m-3620 160 l0 -79 88 -3 c79 -3 87 -5 87 -23 0 -18 -8 -20 -87 -23 l-88 -3 0
-180 c0 -224 9 -249 90 -249 16 0 41 5 56 10 28 11 43 1 44 -26 0 -21 -58 -37
-116 -32 -46 4 -61 10 -87 37 l-32 31 -3 205 -3 205 -55 0 c-51 0 -54 1 -54
25 0 24 3 25 55 25 l55 0 0 74 c0 76 1 78 43 85 4 0 7 -35 7 -79z m-2480 -86
c0 -3 -9 -19 -20 -34 l-20 -28 24 -46 c56 -106 40 -225 -43 -308 l-47 -47 44
-31 c98 -69 110 -205 25 -292 -51 -52 -114 -72 -212 -66 -113 7 -181 48 -216
130 -24 58 -20 80 12 76 22 -2 29 -10 34 -36 15 -74 83 -116 189 -116 127 -1
190 49 190 149 0 94 -59 140 -197 154 -43 4 -92 15 -109 24 -85 44 -143 160
-130 260 13 97 53 159 131 200 56 30 164 30 223 1 l42 -22 23 28 c17 21 26 25
40 18 9 -5 17 -11 17 -14z m-801 0 c29 -8 69 -30 91 -50 l39 -35 3 43 c3 39 6
43 31 46 l27 3 0 -266 0 -266 -27 3 c-25 3 -28 7 -31 46 l-3 43 -36 -32 c-51
-44 -95 -60 -168 -60 -105 0 -181 43 -229 131 -73 134 -27 308 97 372 78 40
128 45 206 22z m1308 -16 c80 -38 133 -129 133 -230 l0 -38 -235 0 c-265 0
-253 4 -214 -78 55 -113 224 -144 337 -62 34 24 41 26 57 14 18 -13 18 -15
-10 -44 -38 -40 -121 -70 -194 -70 -109 0 -188 44 -237 132 -25 46 -29 63 -29
133 0 71 3 86 31 135 70 124 227 171 361 108z m961 -4 c35 -22 54 -43 75 -83
27 -54 27 -58 27 -238 l0 -184 -27 3 -28 3 -5 190 c-5 176 -7 192 -27 221 -31
43 -80 64 -148 64 -64 0 -102 -16 -138 -60 -39 -46 -47 -90 -47 -262 l0 -158
-25 0 -25 0 0 265 0 265 25 0 c23 0 25 -4 25 -42 l0 -42 34 33 c47 45 98 62
174 57 47 -3 75 -11 110 -32z m617 8 c47 -24 95 -72 121 -122 27 -50 27 -200
0 -250 -26 -49 -64 -88 -111 -113 -32 -18 -57 -22 -130 -22 -80 0 -95 3 -137
28 -187 110 -164 406 38 487 63 26 161 22 219 -8z m1721 13 c109 -32 178 -132
177 -259 0 -82 -19 -135 -66 -185 -129 -135 -371 -95 -443 74 -10 25 -17 67
-17 111 -1 194 162 315 349 259z m1312 -21 c35 -22 54 -43 75 -83 27 -54 27
-58 27 -238 l0 -184 -27 3 -28 3 -5 192 c-6 214 -10 230 -81 265 -51 27 -147
24 -189 -4 -77 -53 -89 -95 -90 -305 l0 -153 -25 0 -25 0 0 265 0 265 25 0
c23 0 25 -4 25 -42 l0 -42 34 33 c47 45 98 62 174 57 47 -3 75 -11 110 -32z
m-938 -166 c5 -168 7 -189 26 -214 35 -47 70 -67 127 -72 74 -6 136 22 174 79
28 42 28 44 31 221 l4 178 24 0 24 0 0 -265 0 -265 -25 0 c-23 0 -25 4 -25 42
l0 42 -27 -26 c-47 -43 -89 -59 -158 -59 -74 0 -127 19 -173 64 -51 49 -62
104 -62 299 l0 169 28 -3 27 -3 5 -187z m1921 -258 c23 -13 25 -52 4 -70 -8
-7 -25 -10 -39 -6 -33 8 -43 42 -20 67 20 22 28 23 55 9z m-3773 -913 c4 -20
-25 -34 -40 -19 -15 15 -1 44 19 40 10 -2 19 -11 21 -21z"/>
<path d="M13463 9176 c-4 -8 -15 -15 -25 -17 -13 -3 -13 -6 -4 -15 10 -9 17
-5 30 17 9 16 15 29 12 29 -3 0 -9 -6 -13 -14z"/>
<path d="M13358 9133 c7 -3 16 -2 19 1 4 3 -2 6 -13 5 -11 0 -14 -3 -6 -6z"/>
<path d="M13190 9080 c-12 -8 -12 -10 5 -10 11 0 27 5 35 10 12 8 12 10 -5 10
-11 0 -27 -5 -35 -10z"/>
<path d="M13073 9048 c-18 -6 -33 -15 -33 -19 0 -11 24 -12 34 -1 4 4 22 12
39 19 41 15 6 15 -40 1z"/>
<path d="M12845 9021 c-3 -5 -2 -12 3 -15 5 -3 9 1 9 9 0 17 -3 19 -12 6z"/>
<path d="M12952 8986 c7 -8 17 -12 22 -9 4 3 2 9 -5 14 -22 13 -31 11 -17 -5z"/>
<path d="M12801 8956 c-23 -10 -27 -21 -9 -32 7 -4 8 -3 4 4 -4 8 0 12 11 12
10 0 26 7 37 15 18 13 18 14 -2 12 -10 0 -29 -5 -41 -11z"/>
<path d="M12756 8912 c-3 -4 4 -9 15 -9 23 -2 25 3 4 10 -8 4 -16 3 -19 -1z"/>
<path d="M17165 10433 l-30 -13 33 6 c22 4 32 2 32 -7 0 -7 3 -10 6 -6 3 3 2
12 -3 20 -7 12 -12 12 -38 0z"/>
<path d="M17105 10410 c-16 -7 -17 -9 -3 -9 9 -1 20 4 23 9 7 11 7 11 -20 0z"/>
<path d="M17040 10390 c0 -5 6 -10 14 -10 8 0 18 5 21 10 3 6 -3 10 -14 10
-12 0 -21 -4 -21 -10z"/>
<path d="M16950 10360 c-12 -8 -9 -10 13 -10 16 0 26 4 22 10 -8 12 -16 12
-35 0z"/>
<path d="M16800 10310 c0 -5 6 -10 14 -10 8 0 18 5 21 10 3 6 -3 10 -14 10
-12 0 -21 -4 -21 -10z"/>
<path d="M16888 10313 c7 -3 16 -2 19 1 4 3 -2 6 -13 5 -11 0 -14 -3 -6 -6z"/>
<path d="M16728 10273 c7 -3 16 -2 19 1 4 3 -2 6 -13 5 -11 0 -14 -3 -6 -6z"/>
<path d="M16620 10240 c34 -11 60 -11 35 0 -11 5 -29 8 -40 8 -16 0 -15 -2 5
-8z"/>
<path d="M16488 10193 c7 -3 16 -2 19 1 4 3 -2 6 -13 5 -11 0 -14 -3 -6 -6z"/>
<path d="M16538 10183 c7 -3 16 -2 19 1 4 3 -2 6 -13 5 -11 0 -14 -3 -6 -6z"/>
<path d="M16390 10160 c-12 -8 -9 -10 12 -10 15 0 30 5 33 10 8 13 -25 13 -45
0z"/>
<path d="M16248 10113 c6 -2 18 -2 25 0 6 3 1 5 -13 5 -14 0 -19 -2 -12 -5z"/>
<path d="M16160 10080 c-12 -8 -11 -10 7 -10 12 0 25 5 28 10 8 13 -15 13 -35
0z"/>
<path d="M16008 10033 c6 -2 18 -2 25 0 6 3 1 5 -13 5 -14 0 -19 -2 -12 -5z"/>
<path d="M15900 9990 c0 -5 5 -10 10 -10 6 0 10 5 10 10 0 6 -4 10 -10 10 -5
0 -10 -4 -10 -10z"/>
<path d="M15749 9943 c-12 -15 -12 -16 4 -10 10 4 23 7 28 7 5 0 9 5 9 10 0
16 -26 12 -41 -7z"/>
<path d="M15660 9910 c0 -5 5 -10 10 -10 6 0 10 5 10 10 0 6 -4 10 -10 10 -5
0 -10 -4 -10 -10z"/>
<path d="M15510 9870 c-8 -5 -12 -11 -9 -14 7 -8 49 5 49 15 0 12 -21 11 -40
-1z"/>
<path d="M15360 9800 c0 -5 7 -10 15 -10 8 0 15 5 15 10 0 6 -7 10 -15 10 -8
0 -15 -4 -15 -10z"/>
<path d="M15150 9738 c-27 -16 -30 -19 -10 -14 14 3 33 6 43 6 9 0 17 7 17 15
0 19 -6 18 -50 -7z"/>
<path d="M14926 9665 c-11 -8 -29 -15 -40 -15 -10 0 -17 -2 -14 -5 10 -10 87
7 92 21 7 18 -14 17 -38 -1z"/>
<path d="M14800 9630 c0 -5 7 -10 15 -10 8 0 15 5 15 10 0 6 -7 10 -15 10 -8
0 -15 -4 -15 -10z"/>
<path d="M14686 9585 c-11 -8 -31 -15 -45 -15 -13 0 -22 -3 -19 -6 11 -10 97
8 102 22 7 18 -14 17 -38 -1z"/>
<path d="M14446 9505 c-11 -8 -31 -15 -45 -15 -13 0 -22 -3 -19 -6 11 -10 97
8 102 22 7 18 -14 17 -38 -1z"/>
<path d="M14190 9418 c-27 -16 -30 -19 -10 -14 14 3 33 6 43 6 9 0 17 7 17 15
0 19 -6 18 -50 -7z"/>
<path d="M11100 5684 l0 -185 169 3 c154 3 172 5 198 24 114 85 102 269 -21
325 -34 15 -66 19 -193 19 l-153 0 0 -186z"/>
<path d="M18345 5642 c-82 -38 -122 -118 -112 -224 10 -110 78 -177 189 -185
55 -4 70 -1 118 24 102 54 138 177 86 290 -34 73 -87 106 -175 111 -49 2 -77
-2 -106 -16z"/>
<path d="M12515 5646 c-139 -64 -139 -291 0 -363 43 -23 123 -21 170 3 22 12
53 40 70 63 24 34 30 54 33 109 4 79 -14 119 -72 166 -32 26 -47 31 -104 33
-42 2 -78 -2 -97 -11z"/>
<path d="M11865 5641 c-77 -35 -115 -102 -115 -199 0 -114 73 -198 183 -209
183 -19 299 176 200 336 -53 84 -172 116 -268 72z"/>
<path d="M13115 5643 c-46 -24 -76 -54 -96 -98 -36 -78 -45 -75 186 -75 l205
0 0 32 c0 49 -43 113 -93 137 -53 26 -157 28 -202 4z"/>
<path d="M14738 5661 c-80 -26 -132 -85 -147 -166 -31 -167 94 -292 256 -255
141 31 204 193 127 327 -42 73 -157 119 -236 94z"/>
<path d="M16486 5658 c-52 -14 -121 -82 -135 -133 -30 -109 5 -214 87 -263 38
-22 59 -27 112 -27 53 0 74 5 112 27 82 49 117 154 87 263 -15 55 -83 119
-142 133 -53 14 -68 14 -121 0z"/>
<path d="M2131 6341 c-12 -12 -27 -21 -34 -21 -22 0 -139 -107 -233 -212 -55
-62 -140 -260 -178 -413 -10 -38 -21 -86 -26 -104 -5 -19 -7 -37 -5 -39 2 -3
21 8 41 24 101 79 136 105 205 151 99 66 104 69 94 53 -6 -10 -4 -12 9 -7 39
15 1 -13 -81 -61 -123 -71 -277 -192 -281 -221 -3 -16 0 -21 8 -16 16 10 -81
-114 -110 -140 -27 -25 -49 -73 -66 -150 -20 -89 -18 -110 16 -148 16 -19 26
-38 22 -42 -4 -5 -2 -6 3 -3 6 3 30 -9 55 -27 l45 -32 -3 -99 c-2 -54 -3 -108
-3 -119 -2 -70 15 -329 28 -425 4 -30 6 -61 5 -67 -2 -7 1 -13 6 -13 5 0 12
-20 15 -45 8 -57 41 -131 62 -139 9 -3 14 -10 11 -15 -3 -4 17 -31 44 -59 28
-28 50 -58 50 -66 0 -9 6 -13 14 -10 22 8 29 -27 9 -48 -9 -10 -18 -26 -19
-35 -2 -8 -16 -30 -33 -47 -16 -17 -39 -60 -51 -96 -12 -36 -26 -71 -32 -77
-8 -10 -3 -13 21 -13 17 0 31 5 31 10 0 6 14 10 30 10 17 0 30 5 30 13 0 6 25
23 55 36 47 20 67 23 131 19 41 -3 80 -10 87 -17 6 -6 21 -11 34 -11 13 0 33
-11 45 -25 11 -13 25 -22 29 -19 12 7 49 -15 49 -29 0 -7 16 -19 36 -26 23 -8
34 -18 30 -26 -3 -9 0 -12 8 -9 7 3 20 -4 30 -15 10 -11 24 -17 34 -14 11 5
14 2 10 -9 -4 -10 4 -19 27 -28 21 -8 31 -18 28 -27 -3 -7 0 -13 5 -13 24 0
73 -133 73 -200 1 -153 -11 -310 -26 -345 -72 -167 -106 -220 -167 -260 -33
-22 -50 -26 -116 -26 -42 0 -99 5 -127 10 -27 5 -53 7 -57 5 -3 -2 -9 0 -13 6
-4 6 -11 8 -16 4 -15 -9 -38 16 -32 34 6 15 5 15 -10 3 -15 -12 -17 -12 -11 4
6 15 4 16 -15 6 -20 -11 -21 -10 -16 19 4 20 2 29 -5 25 -12 -8 -13 1 -1 23 5
10 6 32 3 50 l-7 33 -22 -20 c-12 -12 -26 -21 -31 -21 -17 0 -62 -53 -62 -72
0 -11 -5 -16 -10 -13 -6 3 -13 -2 -17 -12 -4 -10 -12 -22 -18 -28 -6 -5 -24
-39 -40 -75 -17 -36 -33 -67 -38 -68 -7 -4 -47 -76 -47 -86 0 -2 8 -7 18 -9
13 -4 13 -5 -4 -6 -18 -1 -23 -10 -28 -48 -4 -27 -8 -75 -9 -108 -1 -56 3 -93
22 -216 14 -90 -25 -140 -98 -126 -36 7 -81 -30 -81 -66 0 -33 -9 -39 -34 -22
-11 8 -29 15 -38 15 -15 0 -17 -5 -12 -26 5 -18 3 -25 -4 -20 -6 3 -13 2 -17
-3 -7 -12 -82 13 -107 36 -10 9 -18 22 -18 30 0 7 -3 12 -8 12 -20 -3 -32 2
-32 16 0 7 -6 18 -13 22 -8 4 -19 17 -25 28 -6 12 -40 31 -83 46 -67 24 -73
29 -77 58 -3 29 -1 31 32 31 46 0 66 9 66 29 0 9 5 22 10 27 14 14 24 106 16
139 -5 20 -11 25 -26 20 -23 -7 -28 13 -8 33 8 8 8 15 -3 28 -11 13 -11 18 -1
21 6 3 12 13 12 23 0 14 -10 21 -37 25 -21 3 -48 8 -59 10 -17 4 -25 -3 -38
-29 -9 -19 -16 -45 -17 -58 l-1 -23 -8 25 c-4 14 -8 39 -9 56 -1 19 -7 34 -17
38 -23 9 -31 7 -15 -3 12 -8 12 -12 -2 -25 -17 -17 -43 -21 -49 -7 -2 5 -38
10 -80 13 l-78 3 0 -60 c0 -33 -3 -112 -6 -175 -6 -125 -14 -149 -64 -175 -42
-22 -39 -39 6 -32 32 5 34 4 28 -15 -7 -22 -8 -22 140 -1 27 4 37 2 32 -6 -4
-6 -18 -11 -31 -11 -13 0 -26 -4 -30 -9 -9 -16 80 -24 136 -12 52 11 115 6
125 -10 3 -5 30 -9 60 -9 30 0 54 -4 54 -10 0 -6 -45 -10 -115 -10 -80 0 -115
4 -115 11 0 9 -60 10 -232 5 -128 -4 -237 -10 -243 -14 -6 -4 -11 -23 -12 -42
0 -19 -1 -41 -2 -48 -1 -9 -14 -12 -43 -10 -39 3 -43 6 -49 33 -5 27 -6 28
-12 9 -4 -11 -2 -34 5 -50 12 -27 18 -31 68 -35 91 -7 265 -2 320 10 28 6 132
11 231 11 160 0 184 -2 207 -19 31 -21 130 -35 148 -20 17 14 59 -7 75 -39 23
-42 18 -249 -8 -357 -43 -175 -48 -242 -45 -600 1 -187 -1 -345 -5 -350 -5 -6
-21 -17 -37 -25 -24 -12 -82 -15 -345 -14 -332 1 -330 -9 4 -20 172 -5 454 10
469 25 3 3 8 173 11 379 3 218 10 379 15 384 7 7 10 0 10 -18 0 -28 22 -76 51
-108 10 -11 35 -20 69 -23 30 -3 59 -10 64 -15 12 -12 46 -13 46 -2 0 4 9 13
20 19 17 11 19 10 14 -5 -5 -16 -5 -16 9 1 15 19 32 24 21 6 -3 -6 8 -3 26 6
32 17 33 17 27 -4 -3 -12 -4 -21 -3 -21 0 0 16 4 33 9 28 8 33 7 38 -10 4 -10
12 -19 19 -19 7 0 26 -11 42 -25 46 -40 53 -45 64 -45 5 0 10 -4 10 -10 0 -5
6 -10 13 -10 28 0 88 -66 101 -111 13 -42 12 -49 -8 -91 -12 -25 -35 -60 -52
-77 -27 -29 -32 -43 -50 -147 -6 -31 -3 -34 63 -73 37 -22 75 -50 83 -62 41
-58 35 -56 71 -21 18 18 54 39 79 46 25 8 68 24 95 37 42 19 67 23 155 23 110
0 101 2 344 -83 32 -12 64 -26 71 -31 10 -8 19 -4 34 16 30 38 31 64 6 171
-21 87 -45 113 -173 181 -44 23 -84 48 -90 55 -11 12 -16 47 -14 79 2 20 74
58 108 58 13 0 25 4 28 8 2 4 21 9 42 10 49 4 50 5 57 49 4 21 9 52 12 68 4
24 3 26 -4 10 -9 -19 -10 -19 -10 3 -1 31 -18 19 -26 -18 -4 -17 -11 -28 -16
-24 -5 3 -13 -5 -18 -18 -7 -17 -8 -9 -5 30 2 30 6 59 10 65 3 7 -2 3 -10 -7
-12 -15 -16 -16 -16 -5 -1 8 -7 3 -15 -11 l-14 -25 -1 30 c0 23 -3 27 -10 15
-15 -24 -12 5 5 47 20 47 20 48 -15 11 -19 -20 -30 -41 -30 -60 0 -26 -2 -28
-15 -14 -8 8 -15 25 -15 38 0 40 -15 52 -28 23 -7 -15 -10 -30 -8 -33 2 -4 -2
-18 -10 -32 -14 -24 -14 -23 -10 18 4 27 2 41 -4 37 -6 -3 -10 0 -10 7 0 7
-10 2 -21 -12 l-21 -25 7 30 c4 23 3 27 -6 15 -8 -12 -9 -9 -5 15 5 29 5 29
-11 -5 -13 -27 -17 -31 -21 -17 -3 14 -7 16 -18 6 -24 -19 -16 7 11 39 14 17
25 35 25 42 0 7 -19 -11 -41 -39 -23 -29 -44 -49 -47 -47 -3 3 7 29 22 57 16
28 26 53 23 55 -3 3 -18 -22 -35 -55 -17 -33 -42 -75 -57 -93 -22 -26 -24 -27
-11 -6 69 115 80 154 22 80 -24 -31 -28 -33 -22 -12 4 14 9 36 12 49 3 14 8
29 11 34 3 5 -6 1 -21 -8 -32 -21 -46 -13 -23 13 10 10 17 23 17 28 0 4 -7 -2
-16 -14 -12 -17 -19 -20 -29 -12 -9 8 -12 5 -11 -12 0 -13 7 -23 15 -23 8 0
16 -7 19 -15 3 -8 1 -12 -3 -8 -5 4 -15 2 -23 -5 -13 -10 -14 -9 -8 1 9 14
-12 45 -24 37 -5 -3 -12 0 -16 6 -4 7 -3 9 3 6 6 -4 13 3 16 15 8 30 1 35 -23
13 -11 -10 -20 -13 -20 -7 0 6 5 14 10 17 6 4 7 11 4 17 -5 7 -16 0 -32 -18
l-25 -29 22 38 c11 20 31 54 43 75 16 26 17 33 6 24 -11 -9 -17 -10 -20 -2 -4
12 -50 -28 -81 -70 -11 -15 -9 -9 4 15 12 22 29 48 37 58 23 26 7 32 -17 6
-15 -17 -21 -19 -21 -8 0 8 5 20 12 27 6 6 9 14 6 17 -3 3 -15 -9 -27 -27 -32
-50 -25 -28 17 54 20 40 48 97 61 126 27 60 58 94 90 99 14 2 21 -2 21 -15 1
-15 2 -15 13 -2 17 22 22 23 262 21 22 0 67 0 100 0 33 -1 296 -3 585 -5 796
-6 1102 21 1126 97 4 12 20 37 35 55 23 25 28 39 23 59 -5 19 -2 30 11 40 11
7 14 13 8 13 -10 0 -11 74 -4 223 1 12 9 17 30 17 25 0 30 5 34 33 11 61 16
102 11 86 -3 -11 -14 -14 -33 -11 -22 3 -30 -1 -34 -15 -3 -10 -5 14 -6 52 -1
76 4 91 33 96 17 4 19 13 17 105 -1 55 -6 130 -12 165 -5 35 -12 83 -15 107
-4 26 -3 42 4 42 5 0 32 15 58 33 27 19 66 42 87 52 25 12 34 21 26 25 -7 5 0
10 20 15 17 4 29 11 25 16 -3 5 1 9 8 9 16 0 88 71 88 87 0 6 11 14 24 17 15
4 23 13 22 23 0 11 5 17 16 17 14 -1 17 4 14 22 -4 21 -1 24 26 24 30 0 31 1
13 20 -17 18 -16 19 9 26 14 3 23 10 20 15 -3 5 0 9 5 9 6 0 11 6 11 14 0 7 9
16 21 19 12 3 18 10 14 16 -3 6 -1 11 4 11 6 0 11 6 11 13 0 8 11 24 24 36 23
22 40 66 66 168 12 48 19 54 59 55 22 1 28 5 25 17 -2 9 10 -15 27 -52 33 -70
52 -81 57 -34 2 19 -1 27 -12 27 -10 0 -16 9 -16 25 0 18 5 25 18 25 12 0 18
7 17 19 -2 28 -22 49 -56 56 -17 4 -33 13 -35 20 -4 10 -32 12 -113 10 -118
-3 -147 -9 -173 -34 -30 -29 -47 -41 -56 -41 -13 0 -102 -88 -102 -100 0 -6
-4 -8 -10 -5 -5 3 -10 0 -10 -8 0 -16 -41 -57 -58 -57 -7 0 -12 -5 -12 -11 0
-14 -26 -39 -40 -39 -7 0 -26 -16 -42 -35 -17 -19 -35 -32 -39 -30 -4 3 -10
-4 -14 -15 -4 -11 -11 -18 -16 -14 -6 3 -32 -12 -59 -35 -27 -23 -55 -41 -62
-41 -28 0 -64 -44 -59 -72 0 -5 -2 -7 -7 -6 -15 3 -42 -15 -42 -28 0 -7 -6
-17 -13 -21 -28 -18 -207 -226 -213 -248 -3 -12 -1 -39 5 -59 7 -28 7 -38 -2
-41 -7 -2 -84 -13 -172 -25 -88 -11 -258 -34 -378 -51 -121 -16 -223 -29 -227
-29 -9 0 -12 18 -35 275 -24 259 -37 368 -47 390 -6 15 -7 11 -3 -15 5 -37 20
-244 30 -418 5 -84 4 -102 -7 -96 -10 6 -10 4 1 -9 7 -9 11 -26 8 -37 -3 -11
0 -20 6 -20 8 0 7 -4 -1 -12 -15 -15 -16 -31 -1 -22 8 5 10 -4 7 -30 -3 -30
-1 -36 11 -31 9 4 45 8 81 11 54 3 60 2 38 -7 -16 -6 -28 -16 -28 -22 0 -7 -5
-6 -11 3 -8 12 -9 10 -5 -10 3 -14 6 -31 6 -38 0 -7 5 -10 12 -6 7 4 8 3 4 -4
-4 -7 -14 -12 -22 -12 -23 0 -64 -52 -59 -76 2 -13 -2 -21 -11 -21 -8 0 -14 5
-14 10 0 18 -32 46 -46 40 -8 -3 -11 -10 -8 -17 3 -6 -2 -2 -10 8 -15 19 -16
19 -17 -10 0 -16 -3 -23 -6 -16 -2 6 -9 9 -15 6 -6 -4 -6 2 1 14 17 32 12 39
-9 13 -22 -26 -26 -21 -8 12 10 20 10 21 -5 9 -14 -12 -16 -11 -14 7 1 11 3
18 6 16 2 -3 15 7 29 22 15 16 20 29 13 31 -7 2 -8 9 -1 23 9 15 8 17 -6 12
-12 -4 -14 -14 -10 -35 4 -21 2 -28 -7 -25 -6 2 -10 11 -9 18 2 8 4 30 4 49 0
26 2 30 8 15 6 -17 7 -17 12 7 3 15 1 25 -3 22 -12 -7 -11 3 2 28 8 15 8 19 0
14 -21 -14 -11 6 14 26 30 24 31 32 4 57 l-21 20 23 -6 c21 -6 23 -5 10 10 -8
10 -9 17 -3 17 6 0 11 8 11 18 0 9 2 34 4 54 2 24 -2 39 -10 42 -7 3 -13 12
-13 21 0 8 -7 15 -16 15 -8 0 -13 -4 -9 -10 3 -5 -1 -25 -9 -45 -8 -19 -16
-69 -17 -110 -1 -41 -6 -75 -11 -75 -8 0 -2 218 7 247 2 6 0 13 -4 15 -5 2
-11 64 -15 138 -3 74 -8 153 -10 175 -2 22 1 46 6 53 8 9 7 11 -4 7 -9 -4 -19
4 -26 20 -17 38 -14 44 8 15 l19 -25 -5 25 c-5 20 -3 22 5 10 7 -10 11 -11 11
-3 0 7 11 15 25 19 25 6 25 7 8 24 -17 16 -18 16 -25 -4 -6 -20 -6 -20 -7 2
-1 12 -6 22 -12 22 -6 0 -9 -6 -6 -14 5 -11 1 -12 -21 -1 -15 7 -42 19 -59 26
-18 8 -33 19 -33 26 0 7 -9 17 -20 23 -11 6 -20 17 -20 24 0 21 -30 41 -59 38
l-26 -2 25 11 c20 8 22 12 10 19 -8 5 -24 7 -35 5 -11 -3 -14 -2 -7 1 18 8 15
18 -18 70 -16 26 -27 50 -25 54 3 5 -2 11 -11 14 -15 6 -14 15 4 66 5 12 3 13
-10 2 -13 -10 -17 -10 -21 2 -4 9 2 17 14 21 11 4 18 9 15 12 -3 4 -2 11 3 17
4 6 11 24 15 39 5 21 4 27 -5 21 -9 -5 -10 -1 -7 14 4 12 2 20 -3 16 -5 -3 -9
0 -9 6 0 6 -4 9 -9 6 -5 -4 -7 12 -4 36 l5 43 -22 -35 -22 -34 -14 24 c-13 25
-13 25 -14 3 0 -13 -4 -23 -9 -23 -5 0 -7 9 -4 20 7 25 0 25 -23 3 -17 -17
-17 -17 -12 5 6 23 6 23 -13 6 -22 -19 -25 -13 -7 16 17 27 2 37 -22 15 -19
-17 -20 -17 -20 0 0 17 -1 17 -20 0 -18 -16 -20 -16 -20 -2 0 22 -9 21 -26 0
-13 -17 -13 -17 -14 2 0 14 -7 21 -20 21 -14 0 -19 -5 -15 -15 3 -9 3 -12 -1
-8 -4 4 -13 2 -21 -4 -10 -9 -10 -4 2 24 13 32 13 35 -1 33 -9 -1 -22 -13 -30
-27 -11 -19 -13 -21 -14 -6 0 10 5 27 11 38 9 18 9 19 -12 7 -13 -7 -31 -22
-42 -33 -18 -20 -18 -20 -12 1 3 12 2 29 -1 39 -6 15 -8 15 -20 -6 -11 -20
-13 -21 -14 -6 0 15 -4 13 -26 -10 l-25 -28 15 32 c18 35 21 58 5 31 -14 -24
-41 -11 -34 16 5 19 5 19 -5 3 -9 -14 -15 -16 -26 -6 -11 9 -19 8 -35 -7 -17
-16 -19 -16 -13 -1 3 9 2 17 -4 17 -6 0 -8 9 -5 20 5 18 3 19 -21 10 -14 -5
-26 -7 -26 -3 0 3 -10 -2 -22 -13 -22 -19 -23 -19 -8 1 8 11 23 31 35 45 19
23 17 22 -19 -4 -36 -27 -38 -28 -31 -6 6 20 5 21 -15 10 -18 -10 -21 -10 -14
2 12 19 14 39 3 32 -5 -3 -9 0 -9 6 0 6 -5 8 -11 4 -7 -4 -7 1 1 16 11 20 10
21 -10 15 -19 -6 -21 -4 -15 14 5 18 2 21 -24 21 -17 0 -31 5 -31 11 0 5 -4 7
-10 4 -6 -3 -10 -2 -10 4 0 7 -9 7 -27 0 l-28 -10 23 24 22 24 -30 -2 c-23 -1
-27 1 -19 11 8 10 5 11 -12 7 -15 -4 -20 -3 -15 5 5 8 -3 11 -25 8 l-33 -4 25
20 24 19 -24 -6 c-16 -5 -21 -4 -17 4 4 6 1 11 -6 11 -9 1 -7 5 5 14 16 12 14
14 -15 20 l-33 7 28 15 c33 18 34 25 5 21 -17 -2 -21 3 -21 29 -1 16 2 35 6
41 4 6 -1 14 -11 18 -16 6 -16 7 2 20 15 12 17 17 7 29 -10 11 -9 16 6 25 17
9 17 10 1 16 -14 5 -15 11 -8 25 6 10 10 26 10 35 0 9 7 24 16 33 10 9 12 18
6 20 -5 1 1 15 14 29 13 14 21 29 19 34 -3 4 3 12 12 18 10 6 14 11 9 11 -5 0
-1 9 9 20 11 12 13 20 6 20 -7 0 -9 5 -6 10 3 6 0 10 -7 10 -7 0 -2 9 12 20
14 11 19 20 12 20 -7 0 -10 5 -7 10 3 6 1 10 -6 10 -7 0 -5 8 6 20 12 13 14
20 5 20 -10 0 -10 3 0 15 6 8 9 18 6 24 -3 5 0 11 8 14 12 5 27 63 30 117 0
14 6 28 11 32 6 4 10 11 10 15 1 4 8 24 17 43 10 19 18 42 20 50 2 8 11 21 22
29 13 10 15 16 6 21 -9 6 -7 11 9 19 11 7 21 16 21 22 0 26 130 149 158 149 7
0 11 4 8 9 -4 5 8 12 25 16 17 4 33 13 36 21 3 8 16 14 29 14 13 0 24 4 24 9
0 5 8 11 18 15 9 3 43 22 76 41 32 19 65 35 73 35 8 0 11 5 8 10 -3 6 3 10 14
10 11 0 23 5 26 10 3 6 15 10 26 10 11 0 22 7 25 15 4 8 10 12 16 9 5 -3 24 1
43 10 18 9 40 13 48 10 8 -3 18 0 23 7 5 8 3 10 -7 4 -11 -6 -11 -5 -3 4 9 10
17 10 33 2 21 -12 27 -5 21 24 -1 5 7 2 17 -6 36 -31 46 -34 33 -8 -12 23 -12
23 6 8 10 -9 29 -22 41 -28 19 -10 22 -9 16 5 -5 14 -3 15 15 5 11 -6 24 -16
27 -21 9 -14 27 -2 19 13 -3 7 5 1 18 -13 13 -14 35 -32 49 -39 15 -7 33 -24
40 -37 7 -13 15 -24 19 -24 4 0 19 -11 34 -25 20 -19 26 -31 21 -48 -5 -17 -4
-19 4 -7 9 13 11 12 11 -5 0 -15 2 -17 9 -6 6 9 11 -3 16 -35 4 -27 12 -56 19
-64 19 -23 36 -76 77 -245 7 -27 21 -67 31 -87 10 -21 15 -38 11 -38 -5 0 0
-5 10 -11 9 -5 17 -15 17 -22 0 -7 -4 -6 -10 3 -7 12 -10 8 -10 -14 0 -23 3
-26 14 -17 19 16 30 -2 17 -27 -6 -11 -6 -24 0 -33 7 -11 9 -10 10 6 0 13 5 8
13 -15 25 -68 29 -83 17 -76 -15 10 -2 -22 22 -56 16 -21 24 -25 38 -18 10 6
26 10 37 10 11 0 23 7 26 16 6 14 10 13 30 -7 39 -38 86 -71 86 -60 0 5 -9 16
-21 24 -14 11 -17 17 -9 22 9 5 9 9 1 14 -6 4 -14 34 -19 68 -8 56 -7 61 10
58 13 -3 18 2 18 20 0 13 2 32 5 42 3 10 -1 5 -8 -11 l-14 -29 -6 44 c-10 66
-15 107 -10 81 6 -28 23 -19 23 13 0 27 16 42 23 23 3 -7 6 0 6 15 1 16 -3 26
-9 22 -5 -3 -10 -1 -10 4 0 6 5 11 10 11 6 0 10 23 10 50 0 30 4 50 11 50 8 0
10 17 7 51 -3 28 -2 45 2 39 14 -23 22 77 8 101 -10 17 -10 23 0 26 6 3 12 13
12 22 0 10 3 21 7 25 4 4 8 13 9 19 6 63 6 64 13 32 5 -26 8 -21 30 48 13 42
27 74 32 72 4 -3 13 3 18 14 12 22 79 66 88 58 3 -4 19 1 36 9 24 13 31 13 38
3 6 -10 10 -10 22 0 11 8 21 9 34 2 10 -5 41 -18 68 -28 52 -18 167 -123 180
-163 3 -11 11 -20 17 -20 6 0 8 -3 5 -6 -6 -6 41 -81 71 -112 6 -7 12 -20 12
-28 0 -8 5 -14 10 -14 6 0 10 -9 10 -20 0 -12 7 -20 16 -20 14 0 14 3 4 15
-11 13 2 46 74 199 47 101 86 189 86 195 0 6 3 11 8 11 4 0 8 21 10 46 2 32
-4 56 -18 79 -57 92 -269 173 -553 211 -170 23 -556 23 -737 0 -289 -36 -561
-91 -745 -150 -60 -20 -110 -34 -112 -32 -5 4 176 70 282 102 50 15 94 30 98
34 10 8 -92 2 -158 -11 -69 -13 -73 -14 -81 -22 -4 -4 -20 -7 -36 -7 -16 0
-27 -4 -24 -8 3 -5 -8 -9 -24 -10 -16 0 -37 -5 -47 -10 -10 -6 -34 -10 -53
-10 -46 -1 -107 -23 -207 -77 -46 -25 -83 -43 -83 -40 0 3 -27 -8 -60 -25 -33
-17 -60 -26 -60 -21 0 5 9 12 19 16 15 4 28 33 51 108 51 163 73 201 152 265
60 49 66 57 46 60 -47 6 -64 12 -86 32 -18 17 -25 18 -41 8 -15 -9 -23 -9 -35
1 -12 10 -18 9 -35 -8z m-31 -525 c0 -3 -4 -8 -10 -11 -5 -3 -10 -1 -10 4 0 6
5 11 10 11 6 0 10 -2 10 -4z m1607 -548 c-3 -8 -6 -5 -6 6 -1 11 2 17 5 13 3
-3 4 -12 1 -19z m-7 -133 c0 -5 -5 -3 -10 5 -5 8 -10 20 -10 25 0 6 5 3 10 -5
5 -8 10 -19 10 -25z m-29 -142 c-9 -16 -10 -16 -11 -1 0 9 3 25 7 35 7 16 8
17 11 1 2 -10 -1 -25 -7 -35z m-943 -1385 c9 -9 12 -9 12 1 0 9 6 11 18 6 9
-4 27 -9 39 -10 36 -5 63 -16 63 -26 0 -5 5 -9 11 -9 7 0 25 -15 41 -34 19
-23 35 -33 46 -29 12 3 13 2 4 -4 -9 -7 1 -28 44 -87 31 -42 59 -75 61 -72 5
5 -24 53 -44 74 -17 17 -16 18 5 18 10 0 19 -8 19 -19 2 -23 21 -47 38 -47 8
0 16 -14 20 -31 4 -18 15 -33 25 -36 10 -3 27 -18 39 -34 20 -27 23 -45 26
-167 3 -85 1 -128 -4 -112 -5 14 -9 19 -10 11 -1 -8 -4 -11 -7 -8 -4 4 -1 13
6 22 7 9 8 15 2 15 -5 0 -13 33 -17 73 -8 90 -15 127 -23 127 -4 0 -3 -63 2
-141 10 -153 8 -160 -43 -156 l-26 2 -3 128 -3 127 -34 0 c-21 0 -41 7 -52 19
-18 19 -18 19 -18 -22 0 -23 -4 -90 -8 -149 l-9 -107 26 -7 c14 -3 26 -10 26
-14 0 -10 -40 -1 -57 13 -9 7 -13 50 -13 154 0 117 -3 147 -15 160 -9 8 -18
13 -21 10 -3 -3 -6 -53 -7 -111 -2 -88 -5 -108 -21 -123 -18 -18 -18 -16 -12
77 4 52 9 106 12 120 5 24 5 24 -11 -3 -9 -15 -22 -63 -30 -105 -7 -42 -18
-89 -24 -104 -11 -29 -1 -38 44 -38 16 0 25 7 28 23 3 14 4 11 4 -9 -1 -19 -8
-36 -19 -43 -10 -6 -18 -8 -18 -4 0 8 -24 11 -102 13 -51 0 -62 9 -67 53 -1 8
-4 7 -11 -3 -7 -11 -10 -7 -10 18 0 17 5 32 10 32 6 0 10 30 9 73 -1 52 -3 65
-9 47 -6 -17 -8 -3 -7 45 l2 70 40 3 c22 2 44 10 48 18 11 18 27 18 27 -1 0
-20 59 -20 66 0 4 8 10 12 15 9 5 -3 6 3 2 12 -4 10 -8 13 -10 7 -6 -16 -33
-4 -33 14 0 8 -4 11 -10 8 -5 -3 -11 -1 -11 4 -1 6 -2 17 -3 24 0 6 -13 13
-28 15 -16 2 -28 9 -28 18 0 8 -4 14 -10 14 -5 0 -10 7 -10 15 0 8 -7 15 -16
15 -10 0 -14 6 -11 14 3 8 -1 17 -10 20 -9 4 -13 9 -10 13 4 3 -5 19 -18 35
-14 16 -25 40 -25 54 0 24 14 32 25 15 3 -6 17 -4 33 5 33 17 35 17 50 2z
m-245 -83 c-3 -9 -8 -14 -10 -11 -3 3 -2 9 2 15 9 16 15 13 8 -4z m107 -169
c18 -42 36 -73 41 -70 11 7 11 -7 1 -24 -6 -9 -14 0 -27 28 -13 30 -21 37 -28
28 -6 -9 -7 -8 -3 5 8 24 -17 82 -41 96 -10 6 -12 11 -5 11 6 0 12 5 12 11 0
6 -7 9 -14 6 -11 -4 -13 -1 -9 10 4 11 2 14 -5 9 -8 -5 -12 1 -12 15 0 19 3
18 28 -14 16 -20 43 -70 62 -111z m-20 129 c7 -9 8 -15 2 -15 -5 0 -12 7 -16
15 -3 8 -4 15 -2 15 2 0 9 -7 16 -15z m2540 0 c0 -7 8 -19 18 -25 14 -9 14
-11 1 -7 -9 3 -21 1 -27 -5 -12 -12 -42 -4 -42 11 0 5 10 7 21 4 18 -5 20 -3
14 16 -4 12 -2 21 4 21 6 0 11 -7 11 -15z m-51 -54 c8 -5 9 -11 3 -15 -5 -3
-15 1 -22 9 -14 16 -3 20 19 6z m-19 -32 c0 -5 -9 -9 -21 -9 -12 0 -23 -8 -26
-20 -3 -11 -12 -20 -19 -20 -23 0 -16 16 17 44 29 25 49 27 49 5z m-2280 -28
c0 -6 -4 -13 -10 -16 -5 -3 -10 1 -10 9 0 9 5 16 10 16 6 0 10 -4 10 -9z
m2190 -49 c0 -10 6 -24 13 -31 10 -11 8 -11 -10 -2 -27 14 -36 28 -28 41 10
16 25 11 25 -8z m-30 -54 c0 -22 -28 -24 -36 -3 -9 21 16 51 27 33 5 -7 9 -21
9 -30z m-40 -22 c0 -8 3 -21 6 -29 3 -8 -2 -17 -12 -21 -23 -9 -30 0 -14 19 7
8 8 15 2 15 -18 0 -31 -25 -22 -40 15 -24 11 -31 -10 -20 -26 14 -25 38 2 67
24 26 48 30 48 9z m-2253 -113 c-2 -16 -4 -3 -4 27 0 30 2 43 4 28 2 -16 2
-40 0 -55z m2172 21 c6 -15 9 -29 6 -32 -9 -10 -44 30 -38 44 8 21 18 17 32
-12z m-2142 -76 c-3 -8 -6 -5 -6 6 -1 11 2 17 5 13 3 -3 4 -12 1 -19z m547
-169 c1 -36 -7 -45 -23 -25 -8 10 -8 21 -1 41 13 33 23 27 24 -16z m-58 -4 c1
-8 -2 -15 -7 -15 -5 0 -9 10 -9 22 0 23 12 17 16 -7z m-586 -55 c0 -5 -5 -10
-11 -10 -5 0 -7 5 -4 10 3 6 8 10 11 10 2 0 4 -4 4 -10z m596 -11 c5 -8 2 -10
-7 -5 -8 4 -5 0 5 -8 20 -16 20 -16 0 -17 -15 0 -16 -2 -4 -7 17 -8 25 -32 10
-32 -5 0 -10 -18 -10 -40 0 -22 -5 -40 -11 -40 -5 0 -7 5 -4 11 4 5 -1 19 -11
30 -9 10 -13 19 -8 19 5 0 5 4 -1 8 -5 4 -19 25 -30 47 l-21 40 42 3 c25 2 45
-2 50 -9z m54 -281 c0 -161 -3 -310 -6 -330 -14 -82 -23 -30 -24 139 0 112 -5
181 -12 190 -7 9 -7 13 1 13 6 0 11 5 11 11 0 5 -6 7 -12 3 -10 -6 -10 -4 0 8
8 11 13 54 13 137 0 99 3 121 14 121 13 0 15 -44 15 -292z m-104 -3 c4 -22 9
-33 11 -23 2 9 11 19 20 22 10 4 14 2 10 -8 -4 -10 -1 -13 8 -10 11 4 13 -11
13 -75 -1 -52 -5 -81 -12 -81 -7 0 -11 16 -10 38 1 20 -2 44 -7 52 -5 9 -9
-23 -9 -85 0 -94 -1 -101 -20 -101 -11 0 -20 4 -20 9 0 4 -4 5 -10 2 -5 -3
-10 -1 -10 5 0 7 -14 32 -32 56 -26 36 -29 47 -18 57 10 10 12 9 7 -5 -3 -10
-2 -20 3 -23 6 -4 10 0 10 7 1 9 5 7 14 -4 7 -10 16 -18 18 -18 10 0 0 133
-10 139 -27 16 -25 89 5 171 5 15 26 -49 39 -125z m202 39 c-14 -14 -16 -14
-22 1 -3 9 -2 13 4 10 6 -3 10 2 10 11 0 14 3 15 12 6 10 -9 9 -16 -4 -28z
m-145 19 c-7 -2 -13 -13 -13 -24 0 -10 -4 -19 -10 -19 -8 0 -8 23 -1 48 1 1 9
2 19 1 10 0 12 -3 5 -6z m474 -119 c-3 -3 -12 -4 -19 -1 -8 3 -5 6 6 6 11 1
17 -2 13 -5z m-1086 -173 c0 -67 -2 -125 -5 -128 -3 -4 -6 54 -6 127 0 73 2
131 5 129 2 -3 5 -60 6 -128z m-431 18 c0 -4 -4 -11 -10 -14 -5 -3 -10 0 -10
9 0 8 -3 23 -6 33 -5 16 -4 16 10 -1 9 -11 16 -23 16 -27z m1050 -21 c0 -5 -4
-8 -10 -8 -5 0 -10 10 -10 23 0 18 2 19 10 7 5 -8 10 -18 10 -22z m-673 -20
c-3 -7 -5 -2 -5 12 0 14 2 19 5 13 2 -7 2 -19 0 -25z m-401 -110 c15 -35 28
-72 30 -83 2 -11 8 -38 13 -60 5 -22 12 -52 15 -67 5 -19 11 -25 24 -21 26 6
137 -184 120 -205 -7 -7 -55 -42 -107 -77 -53 -35 -130 -94 -172 -132 -42 -37
-117 -103 -167 -146 -81 -69 -92 -75 -101 -60 -6 10 -11 14 -11 8 0 -5 -7 5
-15 24 -18 41 -20 142 -2 160 10 11 8 11 -10 2 -19 -10 -23 -6 -47 41 -14 29
-26 63 -26 77 0 22 4 19 20 -18 11 -24 20 -51 20 -62 0 -10 4 -21 10 -24 10
-6 145 94 233 175 29 26 62 50 75 54 12 4 22 14 22 22 0 8 4 14 8 14 4 0 16
14 26 32 11 17 35 49 54 70 l34 38 -16 67 c-9 38 -18 75 -19 83 -2 8 -9 29
-16 45 -19 44 -41 133 -40 158 1 13 4 7 10 -15 5 -21 21 -66 35 -100z m154
102 c35 -5 104 -10 153 -11 62 -1 90 -6 94 -14 2 -8 5 -67 6 -132 l2 -118 -90
4 c-49 2 -128 6 -175 10 l-84 6 -7 35 c-5 23 -3 45 7 64 18 38 18 56 -5 116
l-19 50 26 0 c15 0 56 -5 92 -10z m680 -41 c113 -6 213 -11 223 -11 16 1 16
-2 6 -15 -11 -13 -10 -18 10 -35 27 -21 38 -15 43 22 l3 25 525 -4 c289 -2
527 -5 529 -7 2 -2 -2 -54 -10 -117 l-13 -114 -189 -7 c-104 -3 -318 -9 -475
-13 -200 -5 -270 -9 -230 -15 32 -4 83 -14 115 -22 40 -11 61 -12 70 -5 18 16
49 2 50 -22 1 -14 -3 -19 -12 -15 -19 7 -8 -65 13 -81 12 -10 13 -15 3 -27 -7
-8 -19 -12 -27 -9 -8 3 -23 -2 -34 -12 -14 -12 -28 -16 -50 -12 -19 4 -30 2
-30 -4 0 -8 -15 -9 -47 -3 -27 4 -65 7 -87 5 -21 -1 -54 3 -72 9 -38 13 -47
41 -12 37 30 -3 34 23 7 51 -11 13 -18 29 -15 37 3 8 1 17 -3 19 -5 3 -8 16
-7 28 1 18 8 24 36 28 l35 6 -42 7 c-42 7 -47 13 -44 50 1 9 -3 17 -9 17 -7 0
-10 -7 -6 -15 3 -10 -1 -15 -12 -16 -10 0 -12 -3 -4 -6 6 -2 12 -9 12 -14 0
-22 -26 -1 -31 26 l-6 30 -2 -32 -1 -33 -107 0 c-153 1 -467 25 -489 38 -16
10 -16 11 -2 12 13 0 17 17 23 108 4 59 9 110 12 115 6 10 110 9 353 -4z
m-2065 -9 c3 -5 -3 -10 -15 -10 -12 0 -18 5 -15 10 3 6 10 10 15 10 5 0 12 -4
15 -10z m175 0 c0 -5 -11 -10 -24 -10 -13 0 -26 -7 -30 -15 -4 -11 2 -15 25
-15 20 0 29 -4 27 -12 -3 -9 -32 -14 -89 -15 -74 -2 -81 0 -56 11 15 7 25 15
21 18 -3 4 10 10 29 13 20 4 38 13 41 21 6 16 56 19 56 4z m3540 -5 c21 -13 2
-255 -29 -350 l-9 -30 -2 40 -2 40 -10 -42 c-8 -36 -13 -43 -33 -43 -21 0 -24
4 -21 28 2 15 8 38 13 52 16 40 6 50 -47 50 l-47 0 -3 63 c-3 83 -1 187 4 195
5 9 171 6 186 -3z m-3526 -101 c3 -9 6 -25 6 -37 0 -27 -15 -11 -24 26 -7 29
8 38 18 11z m779 -55 c-7 -7 4 -25 38 -61 27 -28 47 -53 44 -56 -2 -3 -12 1
-20 8 -9 7 -15 9 -14 4 4 -24 -2 -36 -17 -30 -9 4 -13 2 -8 -5 3 -6 -16 -34
-42 -61 -27 -28 -41 -48 -31 -45 11 4 16 3 12 -3 -3 -6 -12 -10 -20 -10 -7 0
-15 -5 -17 -12 -3 -8 -21 -2 -54 19 -27 17 -55 33 -63 35 -9 3 21 43 89 116
58 62 106 112 109 112 3 0 0 -5 -6 -11z m2800 -4 c4 -8 2 -17 -3 -20 -6 -4
-10 3 -10 14 0 25 6 27 13 6z m-267 -50 c2 -31 0 -43 -9 -39 -8 3 -11 20 -9
50 5 55 15 50 18 -11z m-3486 5 c12 -8 9 -10 -12 -10 -16 0 -28 5 -28 10 0 13
20 13 40 0z m25 -40 c13 -6 -7 -8 -60 -8 -64 1 -72 2 -40 8 56 10 77 10 100 0z
m-185 -7 c0 -5 -18 -16 -41 -25 -27 -12 -39 -13 -36 -5 7 22 77 49 77 30z
m1780 3 c0 -3 -4 -8 -10 -11 -5 -3 -10 -1 -10 4 0 6 5 11 10 11 6 0 10 -2 10
-4z m507 -32 c9 -9 10 -14 3 -14 -6 0 -8 -5 -5 -10 3 -6 0 -13 -7 -15 -10 -4
-14 -23 -14 -64 l1 -58 -27 29 c-15 16 -30 39 -34 51 -4 12 -14 28 -23 35 -12
10 -13 15 -3 18 6 3 10 10 6 15 -3 5 2 9 10 9 9 0 16 4 16 8 0 15 62 12 77 -4z
m111 -56 l-3 -73 -35 4 c-44 4 -51 15 -48 71 2 65 6 70 50 70 l39 0 -3 -72z
m70 17 c2 -30 -2 -57 -10 -68 -13 -17 -14 -16 -17 10 -2 15 -4 38 -5 51 0 12
-4 22 -8 22 -5 0 -5 13 1 38 1 2 9 2 19 0 13 -2 18 -15 20 -53z m1245 48 c-7
-2 -19 -2 -25 0 -7 3 -2 5 12 5 14 0 19 -2 13 -5z m-4 -30 c-7 -10 -14 -20
-16 -22 -1 -2 -1 6 0 18 1 11 8 21 15 21 12 0 12 -3 1 -17z m-1920 -35 c6 -18
7 -28 2 -23 -10 12 -25 55 -18 55 3 0 10 -15 16 -32z m-1802 16 c-3 -3 -12 -4
-19 -1 -8 3 -5 6 6 6 11 1 17 -2 13 -5z m923 -74 c0 -5 -5 -10 -11 -10 -5 0
-7 5 -4 10 3 6 8 10 11 10 2 0 4 -4 4 -10z m2707 -30 c-4 -16 0 -20 21 -21 26
-2 26 -2 3 -6 -28 -6 -44 8 -35 30 9 24 17 21 11 -3z m-2709 -20 c9 0 23 -9
30 -20 8 -13 8 -20 1 -20 -5 0 -8 -4 -5 -9 6 -9 -15 -61 -25 -61 -22 0 -54 89
-44 121 7 20 8 20 17 6 5 -10 17 -17 26 -17z m1993 3 c-8 -15 -10 -15 -11 -2
0 17 10 32 18 25 2 -3 -1 -13 -7 -23z m-536 -31 c-3 -3 -12 -7 -21 -8 -11 -2
-12 1 -5 10 6 7 7 17 3 22 -4 4 1 2 11 -5 9 -8 15 -16 12 -19z m82 -28 c-3 -3
-12 -4 -19 -1 -8 3 -5 6 6 6 11 1 17 -2 13 -5z m70 -30 c-3 -3 -12 -4 -19 -1
-8 3 -5 6 6 6 11 1 17 -2 13 -5z m191 -11 c-15 -2 -42 -2 -60 0 -18 2 -6 4 27
4 33 0 48 -2 33 -4z m102 -3 c0 -5 -4 -10 -9 -10 -6 0 -13 5 -16 10 -3 6 1 10
9 10 9 0 16 -4 16 -10z m75 0 c-3 -5 -13 -10 -21 -10 -8 0 -14 5 -14 10 0 6 9
10 21 10 11 0 17 -4 14 -10z m-2015 -135 c0 -5 -5 -3 -10 5 -5 8 -10 20 -10
25 0 6 5 3 10 -5 5 -8 10 -19 10 -25z m753 -115 c-5 -19 -23 -39 -23 -25 0 9
20 45 24 45 2 0 2 -9 -1 -20z m-97 -122 c4 -6 3 -8 -4 -4 -6 3 -15 -2 -21 -11
-6 -10 -11 -13 -11 -7 0 9 19 34 26 34 2 0 6 -5 10 -12z m114 -116 c0 -4 -10
-13 -22 -21 -23 -14 -23 -14 -4 8 20 22 26 25 26 13z m-560 -102 c8 -5 11 -10
5 -10 -5 0 -17 5 -25 10 -8 5 -10 10 -5 10 6 0 17 -5 25 -10z m633 -175 c-3
-9 -8 -14 -10 -11 -3 3 -2 9 2 15 9 16 15 13 8 -4z m228 -18 c-10 -9 -11 -8
-5 6 3 10 9 15 12 12 3 -3 0 -11 -7 -18z m-121 -447 c0 -5 -4 -10 -10 -10 -5
0 -10 5 -10 10 0 6 5 10 10 10 6 0 10 -4 10 -10z m220 -60 c8 -5 11 -10 5 -10
-5 0 -17 5 -25 10 -8 5 -10 10 -5 10 6 0 17 -5 25 -10z m-228 -17 c7 -25 -1
-43 -18 -43 -8 0 -14 10 -14 23 0 38 24 52 32 20z m-388 -8 c-4 -8 -8 -15 -10
-15 -2 0 -4 7 -4 15 0 8 4 15 10 15 5 0 7 -7 4 -15z m688 3 c-8 -8 -17 -8 -34
0 -22 10 -21 11 12 11 26 1 31 -2 22 -11z m74 -23 c9 -8 24 -15 35 -15 10 0
19 -3 19 -7 0 -15 -71 -8 -80 7 -20 32 -1 42 26 15z m-656 -30 c0 -9 -7 -18
-15 -21 -12 -5 -12 -10 -4 -27 10 -18 7 -24 -22 -48 l-34 -28 -3 26 c-3 25 12
76 31 101 13 17 47 15 47 -3z m698 -37 c7 -7 12 -26 12 -42 l-1 -31 -29 33
c-17 18 -30 37 -30 42 0 14 34 12 48 -2z"/>
<path d="M3135 3259 c-4 -6 -5 -12 -2 -15 2 -3 7 2 10 11 7 17 1 20 -8 4z"/>
<path d="M2661 3204 c0 -11 3 -14 6 -6 3 7 2 16 -1 19 -3 4 -6 -2 -5 -13z"/>
<path d="M3105 2350 c3 -5 8 -10 11 -10 2 0 4 5 4 10 0 6 -5 10 -11 10 -5 0
-7 -4 -4 -10z"/>
<path d="M3143 2159 c-1 -13 3 -16 15 -12 16 6 15 5 0 -14 -11 -11 -18 -34
-17 -54 1 -19 3 -26 6 -16 8 31 23 18 18 -15 -5 -30 -5 -31 8 -13 21 30 27 54
17 60 -6 4 -10 21 -10 39 0 24 -5 35 -18 38 -12 4 -18 -1 -19 -13z m21 -54 c3
-8 1 -15 -4 -15 -6 0 -10 7 -10 15 0 8 2 15 4 15 2 0 6 -7 10 -15z"/>
<path d="M4531 1974 c0 -11 3 -14 6 -6 3 7 2 16 -1 19 -3 4 -6 -2 -5 -13z"/>
<path d="M1787 2022 c-26 -31 -27 -39 -4 -58 12 -11 17 -13 11 -4 -18 26 -2
70 24 65 9 -2 19 -4 21 -4 2 -1 -3 -9 -13 -20 -13 -15 -14 -20 -3 -29 9 -8 17
-8 27 0 13 8 12 9 -2 5 -24 -8 -30 4 -12 24 12 14 13 19 2 25 -22 14 -36 13
-51 -4z"/>
<path d="M1590 1779 c0 -5 4 -9 10 -9 5 0 7 -8 3 -17 -5 -15 -3 -16 8 -5 7 6
18 12 24 12 5 0 4 -4 -4 -9 -8 -5 -9 -11 -3 -15 5 -3 12 1 15 9 4 9 -5 19 -23
29 -17 8 -30 10 -30 5z"/>
<path d="M2239 6185 c-1 -5 -1 -14 0 -18 1 -5 -3 -6 -8 -2 -6 3 -17 -7 -24
-22 -22 -43 -77 -202 -77 -223 0 -19 1 -19 33 0 17 10 84 46 147 80 63 33 103
58 89 55 -20 -5 -33 0 -58 25 -17 17 -31 40 -31 51 0 18 -10 23 -36 20 -6 -1
-16 9 -22 21 -6 13 -11 19 -13 13z"/>
<path d="M2260 6180 c0 -5 5 -10 11 -10 5 0 7 5 4 10 -3 6 -8 10 -11 10 -2 0
-4 -4 -4 -10z"/>
<path d="M2544 6128 c0 -46 1 -49 15 -31 9 10 33 27 55 38 l39 20 -34 7 c-19
3 -39 2 -46 -3 -8 -7 -14 -5 -20 5 -5 9 -8 -3 -9 -36z"/>
<path d="M1956 5755 c-11 -8 -15 -15 -10 -15 6 0 19 7 30 15 10 8 15 14 9 14
-5 0 -19 -6 -29 -14z"/>
<path d="M2620 5431 c-69 -22 -91 -34 -158 -84 -164 -124 -273 -429 -200 -558
32 -57 48 -51 48 19 1 90 26 206 57 263 40 75 127 159 163 159 9 0 22 6 29 13
17 14 10 1 -25 -51 -70 -103 -84 -276 -31 -384 35 -71 89 -128 153 -159 73
-36 187 -34 267 3 134 63 211 166 226 301 6 53 4 85 -7 122 -29 101 -70 181
-110 218 -7 7 -23 23 -35 36 -35 37 -123 92 -174 107 -61 19 -136 17 -203 -5z
m77 -277 c8 -20 -8 -36 -26 -25 -15 10 -8 41 9 41 6 0 13 -7 17 -16z m299 -36
c28 -19 64 -65 64 -82 0 -6 -102 -56 -115 -56 -16 0 -65 54 -65 71 0 9 7 22
15 29 8 7 15 18 15 24 0 17 21 36 39 36 8 0 29 -10 47 -22z m-41 -178 c3 -5 1
-10 -4 -10 -6 0 -11 5 -11 10 0 6 2 10 4 10 3 0 8 -4 11 -10z m-345 -159 c8
-12 20 -21 27 -21 7 0 13 -4 13 -9 0 -5 17 -15 38 -22 20 -6 43 -16 50 -22 6
-5 12 -7 12 -4 0 3 12 2 28 -2 16 -5 46 -2 76 6 66 20 86 11 50 -22 -14 -13
-30 -22 -35 -19 -5 3 -9 1 -9 -3 0 -11 -139 -13 -146 -2 -3 5 -16 9 -28 9 -13
0 -35 9 -49 20 -14 11 -29 20 -35 20 -12 0 -58 67 -67 99 -5 15 -3 26 6 32 14
8 32 -8 69 -60z"/>
<path d="M4075 5417 c-16 -8 -39 -25 -50 -37 -12 -14 -14 -20 -5 -15 12 7 12
5 -1 -11 -19 -22 -52 -84 -45 -84 3 0 -4 -20 -15 -45 -28 -62 -30 -76 -36
-181 -6 -96 0 -126 43 -221 25 -55 100 -125 113 -105 3 6 20 10 37 10 40 -1
103 48 145 113 24 38 30 57 28 91 -2 24 1 49 5 56 4 7 2 12 -3 12 -6 0 -11 5
-11 11 0 5 5 7 10 4 6 -3 10 -2 10 4 0 5 -6 11 -12 14 -7 2 -10 8 -5 12 10 12
28 -8 30 -34 1 -13 6 -20 14 -17 11 5 19 -25 11 -37 -2 -2 2 -10 8 -18 35 -46
-7 -218 -53 -219 -7 0 -13 -9 -13 -20 0 -11 -3 -19 -7 -18 -5 1 -21 -4 -38
-11 -16 -7 -49 -13 -73 -14 -36 -2 -40 -4 -25 -14 78 -58 216 68 238 217 23
158 -99 377 -247 445 -42 19 -48 24 -27 24 14 1 48 -6 76 -14 128 -38 240
-210 274 -420 7 -44 16 -84 21 -89 4 -6 8 -21 8 -35 0 -20 2 -23 13 -12 18 19
12 189 -11 302 -34 167 -99 271 -206 334 -56 33 -154 43 -201 22z m109 -199
c-4 -6 -2 -8 4 -4 14 9 27 -13 14 -26 -15 -15 -55 22 -41 39 13 15 33 7 23 -9z
m57 -46 c15 -15 16 -19 4 -19 -8 0 -15 4 -15 8 0 5 -7 6 -15 3 -15 -6 -21 7
-8 19 9 10 12 9 34 -11z m-152 -25 c8 -11 5 -19 -12 -35 -27 -26 -37 -20 -37
20 0 21 5 28 19 28 10 0 24 -6 30 -13z m101 -111 c-13 -13 -35 7 -25 24 5 8
11 8 21 -1 10 -8 12 -15 4 -23z m-115 -46 c7 -11 -46 -40 -74 -40 -34 0 -34
20 1 35 39 17 65 19 73 5z"/>
<path d="M3462 4743 c-22 -21 -47 -42 -55 -48 -8 -5 -34 -24 -58 -41 -24 -16
-88 -50 -141 -73 -111 -50 -124 -70 -61 -96 20 -8 88 -44 152 -80 179 -100
255 -116 364 -77 77 28 205 108 138 87 -11 -3 -22 -2 -25 4 -3 5 -15 7 -26 4
-19 -5 -19 -4 2 34 28 51 20 73 -27 73 -19 0 -35 5 -35 11 0 7 19 9 58 5 31
-4 85 -9 120 -12 41 -4 65 -11 69 -20 6 -17 13 -17 49 -4 26 10 26 12 10 28
-13 13 -36 17 -109 18 -146 2 -174 12 -219 78 -9 13 -178 14 -228 2 l-35 -9
21 24 c12 13 20 33 18 45 -3 16 6 28 31 45 19 13 35 27 35 32 0 12 -6 8 -48
-30z"/>
<path d="M6156 4303 c-3 -4 -41 -12 -84 -19 l-77 -13 70 6 c39 3 81 11 95 19
14 7 20 13 14 14 -6 0 -14 -3 -18 -7z"/>
<path d="M5938 4263 c12 -2 30 -2 40 0 9 3 -1 5 -23 4 -22 0 -30 -2 -17 -4z"/>
<path d="M5878 4253 c7 -3 16 -2 19 1 4 3 -2 6 -13 5 -11 0 -14 -3 -6 -6z"/>
<path d="M5788 4243 c6 -2 18 -2 25 0 6 3 1 5 -13 5 -14 0 -19 -2 -12 -5z"/>
<path d="M5570 4229 c-19 -5 -67 -13 -106 -19 -67 -11 -75 -15 -132 -68 -33
-31 -73 -67 -90 -79 -16 -12 -37 -38 -46 -58 -10 -20 -26 -41 -37 -48 -11 -7
-34 -37 -50 -68 -22 -41 -49 -70 -95 -105 -37 -28 -90 -82 -121 -124 -161
-214 -238 -305 -343 -403 -17 -16 -63 -72 -102 -125 -40 -54 -75 -99 -78 -102
-3 -3 -31 -37 -62 -76 -31 -39 -75 -92 -97 -118 -46 -53 -61 -94 -40 -106 10
-7 10 -12 1 -23 -7 -7 -9 -17 -6 -20 3 -3 22 15 42 41 19 26 76 94 126 152
169 196 197 229 274 323 118 144 278 333 356 422 160 180 431 461 465 482 39
24 201 57 214 44 5 -5 -13 -17 -39 -27 -59 -22 -127 -87 -143 -136 -12 -36 -9
-58 7 -58 10 0 163 174 215 243 24 31 49 54 65 58 l27 7 -28 1 c-19 1 -36 -8
-52 -26 l-24 -28 -15 21 c-19 27 -41 32 -86 23z m-620 -532 c0 -2 -10 -12 -22
-23 l-23 -19 19 23 c18 21 26 27 26 19z"/>
<path d="M5995 4130 c-16 -16 -26 -32 -24 -35 3 -2 21 11 39 30 19 19 29 35
24 35 -6 0 -23 -13 -39 -30z"/>
<path d="M5648 4070 c-24 -24 -37 -44 -32 -51 5 -9 13 -5 25 12 10 13 28 36
39 52 31 40 14 33 -32 -13z"/>
<path d="M5498 4093 c7 -3 16 -2 19 1 4 3 -2 6 -13 5 -11 0 -14 -3 -6 -6z"/>
<path d="M4490 3971 c0 -5 5 -13 10 -16 6 -3 10 -2 10 4 0 5 -4 13 -10 16 -5
3 -10 2 -10 -4z"/>
<path d="M4466 3927 c3 -10 9 -15 12 -12 3 3 0 11 -7 18 -10 9 -11 8 -5 -6z"/>
<path d="M4440 3915 c7 -9 15 -13 17 -11 7 7 -7 26 -19 26 -6 0 -6 -6 2 -15z"/>
<path d="M4374 3877 l17 -28 -24 16 c-18 11 -27 13 -32 5 -5 -8 -12 -6 -25 5
-26 23 -35 2 -14 -32 16 -26 15 -25 -20 7 -33 30 -37 32 -26 10 12 -22 12 -24
-2 -12 -9 7 -23 9 -32 6 -14 -5 -14 -9 -4 -23 11 -14 11 -14 -2 -5 -8 6 -28
10 -45 9 -23 -2 -30 -7 -28 -21 1 -10 -4 -22 -10 -26 -6 -4 -12 -25 -12 -47 0
-22 -3 -37 -7 -35 -16 10 -16 -82 0 -131 24 -75 16 -259 -12 -277 -7 -5 -5 -8
6 -8 11 0 15 -5 12 -15 -4 -8 -1 -15 5 -15 6 0 11 13 11 28 0 16 7 44 16 61
13 26 15 49 10 108 -6 64 -5 75 8 70 10 -4 13 -1 9 8 -3 8 -9 12 -14 9 -5 -3
-9 0 -9 5 0 6 4 11 9 11 4 0 8 12 7 28 -1 21 4 27 19 27 34 1 65 16 65 32 0
12 6 14 28 8 15 -3 29 -11 30 -16 2 -5 9 -9 15 -9 14 0 47 -34 69 -70 21 -34
29 -85 18 -114 -6 -16 -4 -39 5 -70 9 -30 10 -48 4 -52 -6 -3 -3 -12 8 -20 17
-13 17 -13 -3 -14 -11 0 -28 -6 -37 -12 -15 -12 -16 -20 -5 -75 6 -35 15 -63
18 -63 4 0 20 19 35 42 24 37 27 46 17 72 -10 29 -10 30 4 10 15 -22 16 -22
61 27 42 45 45 51 31 67 -24 27 -29 50 -43 174 -14 126 -29 161 -79 188 -25
13 -86 93 -86 112 0 5 6 8 13 6 15 -3 77 24 77 34 0 13 -24 21 -28 9 -3 -9
-10 -7 -25 6 l-21 18 18 -28z m56 -237 c8 -16 8 -18 -5 -14 -8 3 -12 10 -9 15
3 5 0 9 -5 9 -6 0 -11 5 -11 11 0 14 18 2 30 -21z m13 -47 c-4 -11 -3 -14 5
-9 7 4 12 3 12 -3 0 -5 -5 -13 -10 -16 -6 -4 -8 -11 -5 -16 3 -5 -1 -6 -9 -3
-21 8 -28 34 -15 50 16 19 30 17 22 -3z"/>
<path d="M4175 3440 c1 -40 15 -51 15 -12 0 17 -4 33 -8 36 -4 2 -7 -8 -7 -24z"/>
<path d="M4177 3363 c-3 -16 -3 -30 -1 -33 7 -7 24 23 24 43 0 27 -17 20 -23
-10z"/>
<path d="M3808 3323 c7 -3 16 -2 19 1 4 3 -2 6 -13 5 -11 0 -14 -3 -6 -6z"/>
<path d="M4066 3307 c4 -12 -4 -14 -43 -10 -33 4 -45 2 -38 -5 6 -6 19 -12 30
-14 11 -1 23 -7 27 -13 5 -6 8 -5 8 3 0 6 8 12 18 12 15 0 15 -2 2 -11 -13
-10 -13 -10 0 -6 15 5 43 -17 34 -26 -8 -8 18 -87 28 -87 5 0 6 -5 3 -10 -3
-6 1 -17 9 -25 8 -9 13 -22 10 -30 -4 -9 0 -15 7 -15 11 0 11 -2 2 -8 -9 -6
-10 -16 -3 -37 10 -29 10 -29 6 -3 -2 15 0 25 4 23 12 -8 19 -45 9 -51 -12 -7
-12 -34 1 -34 5 0 7 8 3 18 -3 9 -3 14 2 10 4 -4 10 -21 14 -38 3 -17 11 -30
16 -28 13 4 6 61 -8 70 -9 6 -8 8 1 8 10 0 10 4 -2 16 -9 8 -17 22 -17 30 -2
20 -3 22 -27 96 -12 37 -22 73 -22 80 0 7 -13 24 -30 38 -16 14 -30 30 -30 37
0 6 -4 15 -10 18 -5 3 -7 0 -4 -8z"/>
<path d="M4170 3310 c0 -5 5 -10 10 -10 6 0 10 5 10 10 0 6 -4 10 -10 10 -5 0
-10 -4 -10 -10z"/>
<path d="M4175 3270 c-3 -5 -1 -10 4 -10 6 0 11 5 11 10 0 6 -2 10 -4 10 -3 0
-8 -4 -11 -10z"/>
<path d="M4180 3214 c0 -22 9 -65 20 -97 11 -31 20 -67 21 -79 0 -13 6 -38 13
-56 11 -32 12 -33 27 -15 17 19 32 66 19 58 -4 -3 -14 15 -22 40 -8 24 -11 46
-6 47 5 2 6 11 3 21 -4 9 -11 15 -15 12 -5 -3 -13 7 -19 22 -10 27 -11 26 -5
-7 4 -26 3 -31 -5 -20 -6 8 -10 32 -9 53 1 21 -4 43 -10 49 -9 9 -12 2 -12
-28z"/>
<path d="M3736 3191 c-3 -5 -27 -12 -52 -16 -39 -6 -56 -16 -114 -73 -58 -57
-71 -76 -86 -127 -20 -72 -10 -129 35 -184 49 -62 73 -74 159 -79 72 -4 81 -3
94 17 16 23 28 18 28 -11 0 -11 7 -18 19 -18 30 0 51 11 51 26 0 8 5 14 10 14
6 0 10 11 10 25 0 14 -4 25 -10 25 -5 0 -10 7 -10 15 0 22 -17 18 -23 -5 -3
-11 -10 -20 -17 -20 -16 0 -7 27 51 149 27 57 49 109 49 116 0 21 -41 66 -103
111 -59 44 -81 52 -91 35z m14 -31 c0 -5 6 -10 13 -10 8 0 33 -19 57 -42 24
-24 40 -37 36 -31 -5 9 -2 11 8 7 9 -3 12 -12 9 -21 -4 -10 -2 -14 5 -10 6 4
-23 -60 -64 -142 -41 -82 -74 -154 -74 -161 0 -6 -4 -9 -8 -6 -14 9 -1 180 14
189 16 9 19 58 5 73 -12 13 -22 164 -10 164 5 0 9 -4 9 -10z m-50 -47 c0 -21
3 -49 7 -63 5 -19 -3 -13 -31 23 -41 53 -41 77 -1 77 22 0 25 -4 25 -37z m-32
-48 c24 -36 32 -55 27 -73 -4 -15 0 -31 9 -41 14 -15 14 -27 8 -185 l-2 -39
-51 6 c-68 8 -109 34 -138 87 -29 52 -35 131 -13 174 19 39 103 127 116 123 5
-2 25 -25 44 -52z"/>
<path d="M3608 2966 c-59 -14 -76 -30 -23 -21 82 13 95 17 95 26 0 11 -10 10
-72 -5z"/>
<path d="M3516 2935 c4 -8 10 -12 15 -9 14 8 10 24 -6 24 -9 0 -12 -6 -9 -15z"/>
<path d="M4350 3129 c-14 -3 -36 -5 -50 -2 l-25 4 24 -20 c27 -25 54 -27 71
-6 18 21 9 32 -20 24z"/>
<path d="M4555 3100 c-16 -17 -16 -20 -3 -15 9 4 19 13 22 21 7 19 2 18 -19
-6z"/>
<path d="M4301 3034 c0 -11 3 -14 6 -6 3 7 2 16 -1 19 -3 4 -6 -2 -5 -13z"/>
<path d="M3288 2911 c-1 -35 0 -65 5 -68 4 -2 7 4 8 14 0 10 2 35 3 56 1 21
-1 43 -5 49 -4 6 -9 -17 -11 -51z"/>
<path d="M4180 2908 c0 -16 5 -28 10 -28 13 0 13 20 0 40 -8 12 -10 9 -10 -12z"/>
<path d="M670 2743 c0 -9 23 -38 52 -63 152 -133 187 -172 191 -209 2 -20 3
-9 3 24 -1 59 -1 60 -61 121 -64 65 -161 144 -176 144 -5 0 -9 -8 -9 -17z"/>
<path d="M650 2655 c-1 -5 -1 -22 0 -37 1 -16 -3 -28 -9 -28 -6 0 -11 7 -11
15 0 28 -25 15 -50 -25 -13 -22 -30 -42 -37 -44 -7 -3 -13 -10 -13 -16 0 -9
-25 -42 -57 -76 -7 -7 -13 -28 -13 -46 l1 -33 22 45 c22 45 87 133 116 158 8
6 25 12 37 12 12 0 25 -6 27 -12 3 -7 5 1 5 17 0 32 -15 87 -18 70z"/>
<path d="M908 2632 c9 -10 19 -17 21 -16 6 5 -20 34 -30 34 -5 0 -1 -8 9 -18z"/>
<path d="M715 2563 c4 -43 11 -82 16 -87 5 -6 9 -22 9 -37 0 -38 10 -59 27
-59 12 0 13 3 4 14 -7 8 -15 53 -18 100 -7 99 -2 104 56 55 74 -62 81 -67 81
-60 0 17 -154 151 -173 151 -6 0 -6 -32 -2 -77z"/>
<path d="M950 2520 c0 -5 5 -10 11 -10 5 0 7 5 4 10 -3 6 -8 10 -11 10 -2 0
-4 -4 -4 -10z"/>
<path d="M1030 2477 c0 -26 -4 -47 -10 -47 -5 0 -10 -7 -10 -15 0 -8 6 -15 14
-15 8 0 16 -5 18 -10 2 -6 2 19 2 55 -2 76 -14 103 -14 32z"/>
<path d="M3397 2436 c-5 -11 -3 -15 4 -10 7 4 10 1 7 -7 -3 -8 -15 -13 -26
-11 -12 2 -22 -1 -22 -7 0 -12 27 -10 49 3 10 7 12 3 7 -15 -6 -20 -5 -21 4
-7 8 13 7 24 -3 44 -12 22 -15 24 -20 10z"/>
<path d="M3456 2425 c8 -37 14 -45 14 -19 0 10 -5 26 -10 34 -8 11 -9 7 -4
-15z"/>
<path d="M670 2410 c0 -16 4 -30 8 -30 5 0 7 14 4 30 -2 17 -6 30 -8 30 -2 0
-4 -13 -4 -30z"/>
<path d="M390 2399 c0 -9 20 -52 44 -95 124 -225 148 -271 153 -297 7 -36 31
-46 49 -22 19 26 17 37 -3 31 -18 -6 -78 90 -200 319 -23 44 -43 73 -43 64z"/>
<path d="M3371 2354 c0 -11 3 -14 6 -6 3 7 2 16 -1 19 -3 4 -6 -2 -5 -13z"/>
<path d="M538 2245 c2 -14 8 -25 12 -25 10 0 1 38 -10 45 -4 2 -5 -7 -2 -20z"/>
<path d="M520 2210 c6 -11 13 -20 16 -20 2 0 0 9 -6 20 -6 11 -13 20 -16 20
-2 0 0 -9 6 -20z"/>
<path d="M596 2144 c4 -16 13 -35 21 -42 7 -7 13 -20 13 -28 0 -20 18 -17 24
4 4 13 -5 31 -29 57 -36 37 -36 37 -29 9z"/>
<path d="M1008 1963 c7 -3 16 -2 19 1 4 3 -2 6 -13 5 -11 0 -14 -3 -6 -6z"/>
<path d="M1069 1945 c18 -8 43 -15 55 -14 12 0 1 7 -24 15 -58 18 -74 17 -31
-1z"/>
<path d="M4637 1870 c-3 -11 0 -23 6 -27 7 -3 9 -3 5 2 -4 4 -3 16 3 26 5 11
6 19 1 19 -6 0 -12 -9 -15 -20z"/>
<path d="M2447 1222 c-19 -20 -23 -37 -7 -27 10 6 33 45 27 45 -2 0 -11 -8
-20 -18z"/>
<path d="M2381 1178 c-13 -16 -21 -31 -18 -34 3 -3 15 9 27 26 29 40 22 46 -9
8z"/>
<path d="M2394 1149 c-19 -22 -19 -22 4 -10 12 6 22 16 22 21 0 15 -5 12 -26
-11z"/>
<path d="M2437 1126 c-11 -8 -14 -17 -8 -20 5 -4 15 3 21 14 13 23 11 24 -13
6z"/>
<path d="M2691 1001 c-8 -6 -9 -11 -3 -15 6 -3 14 -1 17 5 9 14 2 20 -14 10z"/>
<path d="M2895 910 c-4 -12 -5 -24 -2 -27 3 -2 8 5 12 17 4 12 5 24 2 27 -3 2
-8 -5 -12 -17z"/>
<path d="M3041 860 c-25 -91 -24 -88 -7 -66 17 22 31 78 23 98 -2 7 -10 -7
-16 -32z"/>
<path d="M3870 878 c0 -21 -20 -23 -39 -5 -11 10 -13 9 -8 -5 3 -10 2 -20 -3
-23 -6 -4 -10 -1 -10 6 0 9 -3 9 -14 0 -10 -9 -16 -9 -21 -1 -5 8 -11 5 -21
-7 -13 -17 -13 -17 -14 1 0 15 -3 16 -15 6 -8 -7 -15 -22 -15 -33 0 -30 -19
-8 -22 25 -1 15 -6 24 -10 22 -5 -3 -8 -11 -7 -17 4 -31 -1 -41 -13 -29 -17
17 -26 15 -31 -5 -3 -10 -5 -4 -6 14 -1 34 -21 57 -21 24 0 -29 -16 -35 -25
-8 -7 20 -8 19 -15 -13 l-7 -35 -2 30 c-2 26 -4 27 -11 10 -5 -11 -9 -23 -9
-27 -2 -15 44 -48 66 -48 12 0 27 -9 33 -20 6 -11 15 -18 19 -16 5 3 16 -3 26
-14 15 -17 18 -37 17 -123 -1 -56 -5 -122 -8 -146 -8 -54 1 -61 79 -61 32 0
104 -12 160 -26 56 -14 125 -31 152 -36 28 -5 55 -14 61 -19 7 -5 36 -12 65
-16 30 -3 62 -10 72 -15 17 -9 25 6 8 16 -5 3 -12 18 -15 32 -4 15 -16 34 -28
43 -18 15 -18 18 -5 30 27 22 52 5 65 -44 7 -25 12 -54 12 -65 0 -18 3 -19 20
-10 12 6 25 21 30 34 4 13 23 35 41 50 29 25 39 27 88 23 87 -7 252 -45 296
-68 44 -23 76 -23 82 1 4 13 3 13 -5 1 -8 -11 -23 -2 -76 44 -68 60 -78 82
-35 77 54 -6 71 -13 66 -26 -3 -8 3 -22 14 -32 17 -15 19 -15 19 -1 0 9 -4 19
-10 22 -5 3 -10 21 -10 39 0 36 -19 58 -85 96 -22 13 -56 36 -75 50 -39 30
-188 100 -211 100 -8 0 -19 4 -25 9 -20 21 -122 51 -169 51 -42 0 -56 5 -84
30 -29 27 -32 35 -27 65 6 30 4 36 -16 44 -28 11 -118 4 -143 -10 -20 -12
-106 -4 -115 11 -8 13 -10 12 -10 -2z m864 -404 c13 -5 14 -9 5 -20 -15 -19
-29 -17 -59 6 l-25 20 32 0 c17 0 39 -3 47 -6z m-286 -46 c3 -15 -31 -31 -42
-20 -3 3 -6 19 -6 35 0 28 1 29 23 15 12 -9 23 -22 25 -30z m-128 -11 c0 -5
-7 -4 -15 3 -8 7 -15 20 -15 29 1 13 3 13 15 -3 8 -11 15 -24 15 -29z m-582
26 c-10 -2 -26 -2 -35 0 -10 3 -2 5 17 5 19 0 27 -2 18 -5z m517 -13 c-3 -5
-18 -10 -33 -10 -21 0 -24 2 -12 10 20 13 53 13 45 0z"/>
<path d="M3000 862 c0 -6 -6 -9 -14 -6 -8 3 -15 -4 -18 -18 -3 -13 -9 -31 -13
-40 -5 -14 -2 -18 14 -18 15 0 23 10 31 41 6 23 9 44 6 47 -3 3 -6 0 -6 -6z"/>
<path d="M3152 850 c0 -14 2 -19 5 -12 2 6 2 18 0 25 -3 6 -5 1 -5 -13z"/>
<path d="M3480 822 c0 -28 4 -39 15 -39 8 0 15 7 15 14 0 8 -5 11 -11 7 -8 -4
-9 3 -4 25 4 20 3 31 -4 31 -6 0 -11 -17 -11 -38z"/>
<path d="M3066 814 c-9 -22 -8 -24 9 -18 8 4 15 12 15 20 0 19 -16 18 -24 -2z"/>
<path d="M3113 814 c-3 -8 -1 -20 6 -27 8 -8 11 -4 11 16 0 30 -7 35 -17 11z"/>
</g>
</svg>
